<svg width="19" height="19" viewBox="0 0 19 19" fill="none" xmlns="http://www.w3.org/2000/svg">
<path fill-rule="evenodd" clip-rule="evenodd" d="M9.50001 11.1799L13.6982 15.3781C13.921 15.6009 14.2231 15.7261 14.5382 15.7261C14.8532 15.7261 15.1554 15.6009 15.3781 15.3781C15.6009 15.1554 15.7261 14.8532 15.7261 14.5382C15.7261 14.2231 15.6009 13.921 15.3781 13.6982L11.1783 9.50003L15.3773 5.30182C15.4876 5.19151 15.575 5.06057 15.6347 4.91647C15.6943 4.77237 15.725 4.61793 15.725 4.46198C15.725 4.30602 15.6942 4.15159 15.6345 4.00752C15.5748 3.86345 15.4873 3.73255 15.377 3.6223C15.2666 3.51204 15.1357 3.4246 14.9916 3.36495C14.8475 3.3053 14.6931 3.27462 14.5371 3.27465C14.3811 3.27469 14.2267 3.30545 14.0827 3.36516C13.9386 3.42488 13.8077 3.51239 13.6974 3.62269L9.50001 7.8209L5.3018 3.62269C5.19231 3.50922 5.06132 3.4187 4.91647 3.35639C4.77162 3.29409 4.61581 3.26126 4.45814 3.25982C4.30047 3.25837 4.14408 3.28834 3.99812 3.34798C3.85215 3.40762 3.71952 3.49574 3.60797 3.60718C3.49642 3.71863 3.40818 3.85117 3.34841 3.99708C3.28863 4.14299 3.25851 4.29935 3.25981 4.45702C3.2611 4.6147 3.29379 4.77053 3.35595 4.91544C3.41812 5.06035 3.50852 5.19143 3.62189 5.30103L7.82168 9.50003L3.62268 13.699C3.50931 13.8086 3.41891 13.9397 3.35674 14.0846C3.29458 14.2295 3.26189 14.3854 3.2606 14.543C3.2593 14.7007 3.28942 14.8571 3.3492 15.003C3.40898 15.1489 3.49721 15.2814 3.60876 15.3929C3.72031 15.5043 3.85294 15.5924 3.99891 15.6521C4.14487 15.7117 4.30126 15.7417 4.45893 15.7402C4.61661 15.7388 4.77241 15.706 4.91726 15.6437C5.06211 15.5814 5.19311 15.4908 5.3026 15.3774L9.50001 11.1799Z" fill="white"/>
</svg>
