<svg width="16" height="16" viewBox="0 0 16 16" fill="none" xmlns="http://www.w3.org/2000/svg">
<path d="M13.3334 2.6665H2.66671C1.93337 2.6665 1.34004 3.2665 1.34004 3.99984L1.33337 11.9998C1.33337 12.7332 1.93337 13.3332 2.66671 13.3332H13.3334C14.0667 13.3332 14.6667 12.7332 14.6667 11.9998V3.99984C14.6667 3.2665 14.0667 2.6665 13.3334 2.6665ZM13.0667 5.49984L8.35337 8.4465C8.14004 8.57984 7.86004 8.57984 7.64671 8.4465L2.93337 5.49984C2.86653 5.46231 2.80799 5.41161 2.7613 5.35081C2.71461 5.29 2.68075 5.22036 2.66176 5.14608C2.64277 5.07181 2.63904 4.99446 2.65081 4.91871C2.66258 4.84296 2.6896 4.77038 2.73023 4.70537C2.77086 4.64036 2.82426 4.58427 2.88719 4.5405C2.95013 4.49673 3.02129 4.46618 3.09637 4.4507C3.17145 4.43523 3.2489 4.43515 3.32401 4.45047C3.39913 4.46579 3.47035 4.49619 3.53337 4.53984L8.00004 7.33317L12.4667 4.53984C12.5297 4.49619 12.601 4.46579 12.6761 4.45047C12.7512 4.43515 12.8286 4.43523 12.9037 4.4507C12.9788 4.46618 13.05 4.49673 13.1129 4.5405C13.1758 4.58427 13.2292 4.64036 13.2699 4.70537C13.3105 4.77038 13.3375 4.84296 13.3493 4.91871C13.361 4.99446 13.3573 5.07181 13.3383 5.14608C13.3193 5.22036 13.2855 5.29 13.2388 5.35081C13.1921 5.41161 13.1336 5.46231 13.0667 5.49984Z" fill="#282828"/>
</svg>
