<svg width="24" height="24" viewBox="0 0 24 24" fill="none" xmlns="http://www.w3.org/2000/svg">
<g clip-path="url(#clip0_10_2035)">
<path fill-rule="evenodd" clip-rule="evenodd" d="M12 2C6.477 2 2 6.477 2 12C2 17.523 6.477 22 12 22C17.523 22 22 17.523 22 12C22 6.477 17.523 2 12 2ZM0 12C0 5.3725 5.3725 0 12 0C18.6275 0 24 5.3725 24 12C24 18.6275 18.6275 24 12 24C5.3725 24 0 18.6275 0 12Z" fill="#282828"/>
<path fill-rule="evenodd" clip-rule="evenodd" d="M9.5915 22.7361C9.49483 22.6111 9.49483 21.4988 9.5915 19.3991C8.55583 19.4352 7.90133 19.3633 7.628 19.1837C7.2185 18.9142 6.808 18.0836 6.4445 17.4981C6.081 16.9126 5.273 16.8201 4.947 16.6891C4.621 16.5586 4.539 16.0251 5.8455 16.4281C7.152 16.8316 7.2155 17.9306 7.628 18.1872C8.0405 18.4441 9.026 18.3321 9.4725 18.1261C9.919 17.9201 9.886 17.1542 9.966 16.8506C10.0665 16.5672 9.7115 16.5042 9.704 16.5022C9.2675 16.5022 6.977 16.0036 6.3475 13.7856C5.7185 11.5671 6.529 10.1171 6.9615 9.49415C7.2495 9.07815 7.224 8.19248 6.885 6.83715C8.117 6.67915 9.0675 7.06682 9.7365 8.00015C9.7375 8.00515 10.6145 7.47865 12 7.47865C13.3855 7.47865 13.8775 7.90765 14.257 8.00015C14.6365 8.09265 14.94 6.36715 17.2835 6.83715C16.794 7.79865 16.3845 9.00015 16.697 9.49415C17.01 9.98765 18.237 11.5576 17.4835 13.7856C16.9805 15.2706 15.9923 16.1762 14.519 16.5022C14.3503 16.5562 14.266 16.6432 14.266 16.7632C14.266 16.9432 14.494 16.9626 14.823 17.8061C15.043 18.3681 15.059 19.974 14.871 22.6237C14.3953 22.7447 14.0253 22.826 13.761 22.8676C13.2925 22.9411 12.7835 22.9826 12.2835 22.9981C11.7835 23.0141 11.61 23.0126 10.9185 22.9481C10.4719 22.9073 10.0286 22.8365 9.5915 22.7361Z" fill="#282828"/>
</g>
<defs>
<clipPath id="clip0_10_2035">
<rect width="24" height="24" fill="white"/>
</clipPath>
</defs>
</svg>
