<svg width="155" height="29" viewBox="0 0 155 29" fill="none" xmlns="http://www.w3.org/2000/svg">
<path d="M17.0281 2.55612C17.2681 2.12412 17.6161 1.83612 18.0721 1.69212C18.5281 1.54812 19.0921 1.47612 19.7641 1.47612C20.4601 1.47612 21.0121 1.53612 21.4201 1.65612C21.8521 1.77612 22.1641 1.92012 22.3561 2.08812C22.5721 2.25612 22.7281 2.50812 22.8241 2.84412C22.9681 3.22812 23.0401 3.84012 23.0401 4.68012V24.6601C23.0401 25.2361 23.0161 25.6561 22.9681 25.9201C22.9441 26.1841 22.8361 26.4961 22.6441 26.8561C22.3081 27.5041 21.3721 27.8281 19.8361 27.8281C18.9001 27.8281 18.2521 27.7561 17.8921 27.6121C17.5321 27.4681 17.2321 27.2401 16.9921 26.9281C11.5921 19.7281 8.04006 15.0241 6.33606 12.8161V24.6601C6.33606 25.2361 6.31206 25.6561 6.26406 25.9201C6.24006 26.1841 6.13206 26.4961 5.94006 26.8561C5.60406 27.5041 4.66806 27.8281 3.13206 27.8281C1.64406 27.8281 0.732059 27.5041 0.396059 26.8561C0.204059 26.4961 0.0840586 26.1721 0.0360586 25.8841C0.0120587 25.5961 5.86957e-05 25.1761 5.86957e-05 24.6241V4.53612C5.86957e-05 3.62412 0.108059 2.96412 0.324059 2.55612C0.564059 2.12412 0.912059 1.83612 1.36806 1.69212C1.82406 1.54812 2.41206 1.47612 3.13206 1.47612C3.85206 1.47612 4.41606 1.54812 4.82406 1.69212C5.25606 1.81212 5.55606 1.95612 5.72406 2.12412C5.82006 2.19612 6.09606 2.50812 6.55206 3.06012C11.6161 9.94812 15.0001 14.4961 16.7041 16.7041V4.53612C16.7041 3.62412 16.8121 2.96412 17.0281 2.55612ZM25.3702 18.3601C25.3702 15.4801 26.3782 13.1041 28.3942 11.2321C30.4102 9.36012 32.7142 8.42412 35.3062 8.42412C37.8982 8.42412 40.1902 9.36012 42.1822 11.2321C44.1742 13.0801 45.1702 15.4441 45.1702 18.3241C45.1702 20.3161 44.6542 22.0921 43.6222 23.6521C42.5902 25.1881 41.3302 26.3281 39.8422 27.0721C38.3782 27.7921 36.8542 28.1521 35.2702 28.1521C33.6862 28.1521 32.1502 27.7681 30.6622 27.0001C29.1742 26.2081 27.9142 25.0561 26.8822 23.5441C25.8742 22.0081 25.3702 20.2801 25.3702 18.3601ZM32.8942 20.9521C33.6622 21.5281 34.4422 21.8161 35.2342 21.8161C36.0262 21.8161 36.8182 21.5161 37.6102 20.9161C38.4022 20.3161 38.7982 19.4281 38.7982 18.2521C38.7982 17.0761 38.4262 16.2001 37.6822 15.6241C36.9382 15.0481 36.1342 14.7601 35.2702 14.7601C34.4062 14.7601 33.6022 15.0601 32.8582 15.6601C32.1142 16.2601 31.7422 17.1481 31.7422 18.3241C31.7422 19.4761 32.1262 20.3521 32.8942 20.9521ZM60.3842 9.07212C60.8402 9.21612 61.2122 9.46812 61.5002 9.82812C61.8122 10.1641 61.9682 10.7161 61.9682 11.4841C61.9682 12.2521 61.7402 13.0921 61.2842 14.0041C60.8282 14.9161 60.1682 15.3721 59.3042 15.3721C58.8722 15.3721 58.4522 15.2761 58.0442 15.0841C57.6602 14.8921 57.1442 14.7961 56.4962 14.7961C55.8482 14.7961 55.2362 15.0241 54.6602 15.4801C54.1082 15.9361 53.8322 16.4881 53.8322 17.1361V24.6961C53.8322 25.2481 53.8082 25.6681 53.7602 25.9561C53.7362 26.2201 53.6282 26.5321 53.4362 26.8921C53.0762 27.5161 52.1402 27.8281 50.6282 27.8281C49.4762 27.8281 48.6482 27.6241 48.1442 27.2161C47.7602 26.8801 47.5442 26.3641 47.4962 25.6681C47.4962 25.4281 47.4962 25.0801 47.4962 24.6241V11.9881C47.4962 11.4361 47.5082 11.0281 47.5322 10.7641C47.5802 10.4761 47.6882 10.1641 47.8562 9.82812C48.1922 9.18012 49.1282 8.85612 50.6642 8.85612C52.1042 8.85612 53.0042 9.13212 53.3642 9.68412C53.6282 10.0681 53.7602 10.4641 53.7602 10.8721C53.8802 10.7041 54.0482 10.5001 54.2642 10.2601C54.5042 10.0201 54.9962 9.69612 55.7402 9.28812C56.4842 8.88012 57.1322 8.67612 57.6842 8.67612C58.2602 8.67612 58.7402 8.71212 59.1242 8.78412C59.5082 8.83212 59.9282 8.92812 60.3842 9.07212ZM75.1714 10.8721C75.3154 9.52812 76.2634 8.85612 78.0154 8.85612C78.9514 8.85612 79.6474 8.92812 80.1034 9.07212C80.5594 9.21612 80.8714 9.46812 81.0394 9.82812C81.2314 10.1881 81.3394 10.5121 81.3634 10.8001C81.4114 11.0641 81.4354 11.4721 81.4354 12.0241V24.6241C81.4354 25.1761 81.4114 25.5961 81.3634 25.8841C81.3394 26.1481 81.2434 26.4601 81.0754 26.8201C80.7394 27.4441 79.9114 27.7561 78.5914 27.7561C77.2954 27.7561 76.4194 27.6001 75.9634 27.2881C75.5314 26.9521 75.2794 26.4721 75.2074 25.8481C74.3194 27.1201 72.8314 27.7561 70.7434 27.7561C68.6794 27.7561 66.7594 26.8081 64.9834 24.9121C63.2074 23.0161 62.3194 20.8201 62.3194 18.3241C62.3194 15.8041 63.2074 13.6081 64.9834 11.7361C66.7834 9.84012 68.7514 8.89212 70.8874 8.89212C71.7034 8.89212 72.4474 9.03612 73.1194 9.32413C73.7914 9.61212 74.2594 9.88812 74.5234 10.1521C74.7874 10.3921 75.0034 10.6321 75.1714 10.8721ZM68.6194 18.3601C68.6194 19.1521 68.9314 19.8721 69.5554 20.5201C70.1794 21.1441 70.9354 21.4561 71.8234 21.4561C72.7114 21.4561 73.4434 21.1321 74.0194 20.4841C74.6194 19.8361 74.9194 19.1281 74.9194 18.3601C74.9194 17.5681 74.6314 16.8361 74.0554 16.1641C73.5034 15.4921 72.7474 15.1561 71.7874 15.1561C70.8514 15.1561 70.0834 15.4921 69.4834 16.1641C68.9074 16.8361 68.6194 17.5681 68.6194 18.3601ZM89.8847 21.8881C90.2927 22.2961 90.4967 23.1361 90.4967 24.4081V24.5521C90.4967 25.1281 90.4727 25.5601 90.4247 25.8481C90.4007 26.1121 90.2807 26.4361 90.0647 26.8201C89.7047 27.5161 88.7927 27.8641 87.3287 27.8641C85.8887 27.8641 84.9287 27.6361 84.4487 27.1801C83.9927 26.7241 83.7647 25.8601 83.7647 24.5881V24.4441C83.7647 23.8921 83.7767 23.4721 83.8007 23.1841C83.8487 22.8961 83.9687 22.5721 84.1607 22.2121C84.5207 21.4921 85.4207 21.1321 86.8607 21.1321C88.3247 21.1321 89.3327 21.3841 89.8847 21.8881ZM105.556 0.972123C105.748 0.612123 106.072 0.360124 106.528 0.216124C106.984 0.0721233 107.584 0.000122786 108.328 0.000122786C109.096 0.000122786 109.708 0.0721233 110.164 0.216124C110.62 0.360124 110.932 0.612123 111.1 0.972123C111.292 1.33212 111.4 1.65612 111.424 1.94412C111.472 2.20812 111.496 2.61612 111.496 3.16812V24.6601C111.496 25.2121 111.472 25.6321 111.424 25.9201C111.4 26.1841 111.292 26.4841 111.1 26.8201C110.74 27.4681 109.72 27.7921 108.04 27.7921C106.384 27.7921 105.46 27.2041 105.268 26.0281C104.26 27.1801 102.856 27.7561 101.056 27.7561C98.8957 27.7561 96.9277 26.8201 95.1517 24.9481C93.3757 23.0521 92.4877 20.8561 92.4877 18.3601C92.4877 15.8401 93.3757 13.6321 95.1517 11.7361C96.9517 9.84012 98.9197 8.89212 101.056 8.89212C102.832 8.89212 104.212 9.49212 105.196 10.6921V3.13212C105.196 2.58012 105.208 2.17212 105.232 1.90812C105.28 1.62012 105.388 1.30812 105.556 0.972123ZM99.7237 20.5201C100.348 21.1681 101.104 21.4921 101.992 21.4921C102.88 21.4921 103.612 21.1681 104.188 20.5201C104.788 19.8721 105.088 19.1641 105.088 18.3961C105.088 17.6041 104.8 16.8721 104.224 16.2001C103.672 15.5281 102.916 15.1921 101.956 15.1921C100.996 15.1921 100.228 15.5281 99.6517 16.2001C99.0757 16.8481 98.7877 17.5681 98.7877 18.3601C98.7877 19.1521 99.0997 19.8721 99.7237 20.5201ZM132.651 16.0921C132.651 17.5561 132.279 18.6481 131.535 19.3681C130.815 20.0641 130.011 20.4121 129.123 20.4121H120.591C120.591 21.0841 120.987 21.6481 121.779 22.1041C122.571 22.5601 123.363 22.7881 124.155 22.7881C125.547 22.7881 126.639 22.6441 127.431 22.3561L127.827 22.2121C128.403 21.9481 128.883 21.8161 129.267 21.8161C130.035 21.8161 130.695 22.3561 131.247 23.4361C131.559 24.0841 131.715 24.6361 131.715 25.0921C131.715 27.2281 129.159 28.2961 124.047 28.2961C122.271 28.2961 120.687 27.9961 119.295 27.3961C117.927 26.7721 116.859 25.9561 116.091 24.9481C114.579 23.0041 113.823 20.8321 113.823 18.4321C113.823 15.4081 114.795 12.9961 116.739 11.1961C118.707 9.37212 121.155 8.46012 124.083 8.46012C127.419 8.46012 129.867 9.63612 131.427 11.9881C132.243 13.2361 132.651 14.6041 132.651 16.0921ZM125.055 17.1361C125.967 17.1361 126.423 16.7521 126.423 15.9841C126.423 15.4321 126.207 14.9881 125.775 14.6521C125.367 14.3161 124.767 14.1481 123.975 14.1481C123.207 14.1481 122.439 14.4721 121.671 15.1201C120.903 15.7441 120.519 16.4161 120.519 17.1361H125.055ZM153.026 9.28812C154.274 10.0321 154.898 10.8241 154.898 11.6641C154.898 12.1441 154.658 12.8041 154.178 13.6441L146.726 26.4241C146.486 26.8321 146.102 27.2041 145.574 27.5401C145.046 27.8521 144.518 28.0081 143.99 28.0081C143.486 28.0081 142.994 27.8881 142.514 27.6481C142.058 27.3841 141.734 27.1201 141.542 26.8561L141.218 26.4601L133.73 13.6441C133.25 12.8521 133.01 12.2041 133.01 11.7001C133.01 10.8361 133.634 10.0321 134.882 9.28812C135.794 8.76012 136.514 8.49612 137.042 8.49612C137.57 8.49612 137.978 8.66412 138.266 9.00012C138.578 9.31212 138.902 9.79212 139.238 10.4401L143.954 19.5121L148.67 10.4401C148.934 9.98412 149.126 9.66012 149.246 9.46812C149.39 9.25212 149.606 9.04812 149.894 8.85612C150.182 8.64012 150.566 8.53212 151.046 8.53212C151.526 8.53212 152.186 8.78412 153.026 9.28812Z" fill="#F5B700"/>
</svg>
