<svg width="16" height="16" viewBox="0 0 16 16" fill="none" xmlns="http://www.w3.org/2000/svg">
<path d="M5.33329 2C5.66663 2 6.99996 5 6.99996 5.33333C6.99996 6 5.99996 6.66667 5.66663 7.33333C5.33329 8 5.99996 8.66667 6.66663 9.33333C6.92663 9.59333 7.99996 10.6667 8.66663 10.3333C9.33329 10 9.99996 9 10.6666 9C11 9 14 10.3333 14 10.6667C14 12 13 13 12 13.3333C11 13.6667 10.3333 13.6667 8.99996 13.3333C7.66663 13 6.66663 12.6667 4.99996 11C3.33329 9.33333 2.99996 8.33333 2.66663 7C2.33329 5.66667 2.33329 5 2.66663 4C2.99996 3 3.99996 2 5.33329 2Z" fill="#282828" stroke="#282828" stroke-width="1.33333" stroke-linecap="round" stroke-linejoin="round"/>
</svg>
